<svg width="95" height="40" viewBox="0 0 95 40" fill="none" xmlns="http://www.w3.org/2000/svg">
<path d="M0.641113 0.719465H5.28721V38.9814H0.641113V0.719465ZM20.3187 0.719465H26.058L9.49602 18.6479L26.8779 38.9814H21.1386L3.86605 18.7572L20.3187 0.719465Z" fill="#131118"/>
<path d="M35.647 13.8379V38.9814H31.2742V13.8379H35.647ZM43.2447 18.6479C42.6617 18.2106 42.1333 17.9009 41.6596 17.7187C41.1858 17.5001 40.5846 17.3907 39.8558 17.3907C38.7626 17.3907 37.9062 17.6641 37.2868 18.2106C36.6673 18.7572 36.23 19.5043 35.9749 20.4517C35.7563 21.3991 35.647 22.4741 35.647 23.6766H33.6792C33.6792 21.6724 34.0254 19.9051 34.7178 18.3746C35.4465 16.8077 36.3758 15.5688 37.5054 14.6578C38.635 13.7468 39.7829 13.2913 40.949 13.2913C41.86 13.2913 42.6981 13.4188 43.4633 13.6739C44.265 13.8925 44.9938 14.348 45.6497 15.0404L43.2447 18.6479Z" fill="#131118"/>
<path d="M50.0101 3.45246C50.0101 2.61434 50.3017 1.90377 50.8847 1.32073C51.5042 0.737687 52.2148 0.446167 53.0164 0.446167C53.8546 0.446167 54.5651 0.737687 55.1482 1.32073C55.7312 1.90377 56.0227 2.61434 56.0227 3.45246C56.0227 4.25414 55.7312 4.96472 55.1482 5.5842C54.5651 6.16724 53.8546 6.45876 53.0164 6.45876C52.2148 6.45876 51.5042 6.16724 50.8847 5.5842C50.3017 4.96472 50.0101 4.25414 50.0101 3.45246ZM50.83 13.8379H55.2028V38.9814H50.83V13.8379Z" fill="#131118"/>
<path d="M65.2475 31.2744C65.7576 32.0396 66.3407 32.7502 66.9966 33.4061C67.6525 34.062 68.3995 34.5904 69.2376 34.9913C70.1122 35.3557 71.0596 35.5379 72.0799 35.5379C73.3189 35.5379 74.2846 35.2646 74.9769 34.718C75.7057 34.1349 76.0701 33.3515 76.0701 32.3676C76.0701 31.493 75.7786 30.7642 75.1956 30.1812C74.649 29.5617 73.9384 29.0515 73.0638 28.6507C72.1893 28.2134 71.26 27.8126 70.2762 27.4482C69.183 27.0109 68.0716 26.5007 66.9419 25.9177C65.8487 25.2982 64.9195 24.5148 64.1543 23.5673C63.4255 22.5834 63.0611 21.3627 63.0611 19.9051C63.0611 18.4111 63.4437 17.1721 64.2089 16.1882C65.0106 15.2044 66.0309 14.4756 67.2699 14.0018C68.5453 13.5281 69.8571 13.2913 71.2054 13.2913C72.5537 13.2913 73.8109 13.5099 74.9769 13.9472C76.1795 14.3845 77.2362 14.9675 78.1472 15.6963C79.0582 16.4251 79.7688 17.2632 80.279 18.2106L76.7807 20.4517C76.0883 19.5043 75.2138 18.7208 74.157 18.1013C73.1367 17.4818 71.9706 17.1721 70.6588 17.1721C69.7478 17.1721 68.9643 17.3725 68.3084 17.7734C67.6525 18.1742 67.3245 18.7937 67.3245 19.6318C67.3245 20.2877 67.5796 20.8708 68.0898 21.3809C68.5999 21.8911 69.2559 22.3466 70.0575 22.7474C70.8592 23.1483 71.6973 23.5309 72.5719 23.8953C74.0295 24.4783 75.3596 25.116 76.5621 25.8084C77.7646 26.4643 78.712 27.266 79.4044 28.2134C80.1332 29.1609 80.4976 30.3816 80.4976 31.8756C80.4976 34.062 79.6959 35.884 78.0925 37.3416C76.5256 38.7992 74.4485 39.528 71.8613 39.528C70.1851 39.528 68.6728 39.2365 67.3245 38.6535C65.9763 38.034 64.8284 37.2505 63.881 36.3031C62.97 35.3557 62.2776 34.39 61.8039 33.4061L65.2475 31.2744Z" fill="#131118"/>
<path d="M82.4282 13.8379H95V17.9374H82.4282V13.8379ZM86.5277 5.09226H90.9005V38.9814H86.5277V5.09226Z" fill="#131118"/>
</svg>
